<mxfile host="app.diagrams.net" agent="Mozilla/5.0 (Windows NT 10.0; Win64; x64) AppleWebKit/537.36 (KHTML, like Gecko) Chrome/131.0.0.0 Safari/537.36" version="24.8.6">
  <diagram id="MVhgNVCFNNkVWE_ndixA" name="Page-1">
    <mxGraphModel dx="568" dy="282" grid="1" gridSize="10" guides="1" tooltips="1" connect="1" arrows="1" fold="1" page="1" pageScale="1" pageWidth="850" pageHeight="1100" math="0" shadow="0">
      <root>
        <mxCell id="0" />
        <mxCell id="1" parent="0" />
        <mxCell id="5JU13Hx9IpRc4YvFb3v6-13" value="&lt;font face=&quot;Helvetica&quot; style=&quot;font-size: 15px;&quot;&gt;FourBarLinkage&lt;/font&gt;" style="swimlane;fontStyle=1;align=center;verticalAlign=top;childLayout=stackLayout;horizontal=1;startSize=32;horizontalStack=0;resizeParent=1;resizeParentMax=0;resizeLast=0;collapsible=1;marginBottom=0;whiteSpace=wrap;html=1;strokeWidth=2;" vertex="1" parent="1">
          <mxGeometry x="340" y="30" width="180" height="470" as="geometry" />
        </mxCell>
        <mxCell id="5JU13Hx9IpRc4YvFb3v6-14" value="&lt;p style=&quot;margin: 0px; font-size: 12px;&quot;&gt;&lt;span style=&quot;font-family: &amp;quot;Microsoft YaHei&amp;quot;; font-size: 12px;&quot;&gt;+ A: numpy.Array&lt;/span&gt;&lt;/p&gt;&lt;p style=&quot;margin: 0px; font-size: 12px;&quot;&gt;&lt;span style=&quot;background-color: initial; font-family: &amp;quot;Microsoft YaHei&amp;quot;;&quot;&gt;&lt;br&gt;&lt;/span&gt;&lt;/p&gt;&lt;p style=&quot;margin: 0px; font-size: 12px;&quot;&gt;&lt;span style=&quot;background-color: initial; font-family: &amp;quot;Microsoft YaHei&amp;quot;;&quot;&gt;+ B: numpy.Array&lt;/span&gt;&lt;/p&gt;&lt;p style=&quot;margin: 0px; font-size: 12px;&quot;&gt;&lt;span style=&quot;background-color: initial; font-family: &amp;quot;Microsoft YaHei&amp;quot;;&quot;&gt;&lt;br&gt;&lt;/span&gt;&lt;/p&gt;&lt;p style=&quot;margin: 0px; font-size: 12px;&quot;&gt;&lt;span style=&quot;background-color: initial; font-family: &amp;quot;Microsoft YaHei&amp;quot;;&quot;&gt;+ C: numpy.Array&lt;/span&gt;&lt;/p&gt;&lt;p style=&quot;margin: 0px; font-size: 12px;&quot;&gt;&lt;span style=&quot;background-color: initial; font-family: &amp;quot;Microsoft YaHei&amp;quot;;&quot;&gt;&lt;br&gt;&lt;/span&gt;&lt;/p&gt;&lt;p style=&quot;margin: 0px; font-size: 12px;&quot;&gt;&lt;span style=&quot;background-color: initial; font-family: &amp;quot;Microsoft YaHei&amp;quot;;&quot;&gt;+ D: numpy.Array&lt;/span&gt;&lt;/p&gt;&lt;p style=&quot;margin: 0px; font-size: 12px;&quot;&gt;&lt;span style=&quot;background-color: initial; font-family: &amp;quot;Microsoft YaHei&amp;quot;;&quot;&gt;&lt;br&gt;&lt;/span&gt;&lt;/p&gt;&lt;p style=&quot;margin: 0px; font-size: 12px;&quot;&gt;&lt;span style=&quot;background-color: initial; font-family: &amp;quot;Microsoft YaHei&amp;quot;;&quot;&gt;+ P: numpy.Array&lt;/span&gt;&lt;/p&gt;&lt;p style=&quot;margin: 0px; font-size: 12px;&quot;&gt;&lt;font style=&quot;background-color: initial; font-family: &amp;quot;Microsoft YaHei&amp;quot;;&quot; color=&quot;#454545&quot;&gt;&lt;br&gt;&lt;/font&gt;&lt;/p&gt;&lt;p style=&quot;margin: 0px; font-size: 12px;&quot;&gt;&lt;font style=&quot;background-color: initial; font-family: &amp;quot;Microsoft YaHei&amp;quot;;&quot; color=&quot;#454545&quot;&gt;+&amp;nbsp;&lt;/font&gt;&lt;span style=&quot;background-color: initial; font-family: &amp;quot;Microsoft YaHei&amp;quot;;&quot;&gt;Linkage_Type: String&lt;/span&gt;&lt;/p&gt;&lt;p style=&quot;margin: 0px; font-size: 12px;&quot;&gt;&lt;span style=&quot;background-color: initial; font-family: &amp;quot;Microsoft YaHei&amp;quot;;&quot;&gt;&lt;br&gt;&lt;/span&gt;&lt;/p&gt;&lt;p style=&quot;margin: 0px; font-size: 12px;&quot;&gt;&lt;span style=&quot;background-color: initial; font-family: &amp;quot;Microsoft YaHei&amp;quot;;&quot;&gt;+ geometric_Validity: Bool&lt;/span&gt;&lt;/p&gt;&lt;p style=&quot;margin: 0px; font-size: 12px;&quot;&gt;&lt;span style=&quot;background-color: initial; font-family: &amp;quot;Microsoft YaHei&amp;quot;;&quot;&gt;&lt;br&gt;&lt;/span&gt;&lt;/p&gt;&lt;p style=&quot;margin: 0px; font-size: 12px;&quot;&gt;&lt;span style=&quot;background-color: initial; font-family: &amp;quot;Microsoft YaHei&amp;quot;;&quot;&gt;+&amp;nbsp;&lt;/span&gt;&lt;span style=&quot;background-color: initial; font-family: &amp;quot;Microsoft YaHei&amp;quot;;&quot;&gt;Input_Link_Type: String&lt;/span&gt;&lt;/p&gt;&lt;p style=&quot;margin: 0px; font-size: 12px;&quot;&gt;&lt;span style=&quot;background-color: initial; font-family: &amp;quot;Microsoft YaHei&amp;quot;;&quot;&gt;&lt;br&gt;&lt;/span&gt;&lt;/p&gt;&lt;p style=&quot;margin: 0px; font-size: 12px;&quot;&gt;&lt;span style=&quot;background-color: initial; font-family: &amp;quot;Microsoft YaHei&amp;quot;;&quot;&gt;+ Output_Link_Type: String&lt;/span&gt;&lt;/p&gt;&lt;p style=&quot;text-align: center; margin: 0px;&quot;&gt;&lt;font style=&quot;font-size: 21px;&quot; face=&quot;Microsoft YaHei&quot;&gt;&amp;nbsp; ...&lt;/font&gt;&lt;/p&gt;" style="text;strokeColor=none;fillColor=none;align=left;verticalAlign=top;spacingLeft=4;spacingRight=4;overflow=hidden;rotatable=0;points=[[0,0.5],[1,0.5]];portConstraint=eastwest;whiteSpace=wrap;html=1;fontColor=#000000;fontSize=12;strokeWidth=2;" vertex="1" parent="5JU13Hx9IpRc4YvFb3v6-13">
          <mxGeometry y="32" width="180" height="298" as="geometry" />
        </mxCell>
        <mxCell id="5JU13Hx9IpRc4YvFb3v6-15" value="" style="line;strokeWidth=1;fillColor=none;align=left;verticalAlign=middle;spacingTop=-1;spacingLeft=3;spacingRight=3;rotatable=0;labelPosition=right;points=[];portConstraint=eastwest;strokeColor=inherit;" vertex="1" parent="5JU13Hx9IpRc4YvFb3v6-13">
          <mxGeometry y="330" width="180" height="8" as="geometry" />
        </mxCell>
        <mxCell id="5JU13Hx9IpRc4YvFb3v6-16" value="&lt;p style=&quot;margin: 0px; line-height: 100%; font-size: 12px;&quot;&gt;&lt;span style=&quot;font-family: &amp;quot;Microsoft YaHei&amp;quot;; font-size: 12px;&quot;&gt;+ __init__(float, float, ...): void&lt;/span&gt;&lt;/p&gt;&lt;p style=&quot;margin: 0px; line-height: 100%; font-size: 12px;&quot;&gt;&lt;span style=&quot;background-color: initial; font-family: &amp;quot;Microsoft YaHei&amp;quot;;&quot;&gt;&lt;br&gt;&lt;/span&gt;&lt;/p&gt;&lt;p style=&quot;margin: 0px; line-height: 100%; font-size: 12px;&quot;&gt;&lt;span style=&quot;background-color: initial; font-family: &amp;quot;Microsoft YaHei&amp;quot;;&quot;&gt;+ run(): void&lt;/span&gt;&lt;/p&gt;&lt;p style=&quot;margin: 0px; line-height: 100%; font-size: 12px;&quot;&gt;&lt;span style=&quot;font-family: &amp;quot;Microsoft YaHei&amp;quot;; background-color: initial;&quot;&gt;&lt;br&gt;&lt;/span&gt;&lt;/p&gt;&lt;p style=&quot;margin: 0px; line-height: 100%; font-size: 12px;&quot;&gt;&lt;span style=&quot;font-family: &amp;quot;Microsoft YaHei&amp;quot;; background-color: initial;&quot;&gt;+ check_Parameter(): void&lt;/span&gt;&lt;/p&gt;&lt;p style=&quot;margin: 0px; line-height: 100%; font-size: 12px;&quot;&gt;&lt;span style=&quot;background-color: initial; font-family: &amp;quot;Microsoft YaHei&amp;quot;;&quot;&gt;&lt;br&gt;&lt;/span&gt;&lt;/p&gt;&lt;p style=&quot;margin: 0px; line-height: 100%; font-size: 12px;&quot;&gt;&lt;span style=&quot;background-color: initial; font-family: &amp;quot;Microsoft YaHei&amp;quot;;&quot;&gt;+ find_Linkage_Type(): void&lt;/span&gt;&lt;/p&gt;&lt;p style=&quot;margin: 0px; line-height: 100%; font-size: 12px;&quot;&gt;&lt;span style=&quot;background-color: initial; font-family: &amp;quot;Microsoft YaHei&amp;quot;;&quot;&gt;&lt;br&gt;&lt;/span&gt;&lt;/p&gt;&lt;p style=&quot;text-align: center; margin: 0px; line-height: 100%;&quot;&gt;&lt;font style=&quot;font-size: 21px;&quot; face=&quot;Microsoft YaHei&quot;&gt;&amp;nbsp;...&lt;/font&gt;&lt;/p&gt;" style="text;strokeColor=none;fillColor=none;align=left;verticalAlign=top;spacingLeft=4;spacingRight=4;overflow=hidden;rotatable=0;points=[[0,0.5],[1,0.5]];portConstraint=eastwest;whiteSpace=wrap;html=1;fontColor=default;fontSize=12;" vertex="1" parent="5JU13Hx9IpRc4YvFb3v6-13">
          <mxGeometry y="338" width="180" height="132" as="geometry" />
        </mxCell>
        <mxCell id="5JU13Hx9IpRc4YvFb3v6-17" value="" style="endArrow=diamondThin;endFill=1;endSize=24;html=1;rounded=0;entryX=1.004;entryY=0.303;entryDx=0;entryDy=0;entryPerimeter=0;strokeWidth=2;exitX=-0.01;exitY=1;exitDx=0;exitDy=0;exitPerimeter=0;" edge="1" parent="1" source="5JU13Hx9IpRc4YvFb3v6-23">
          <mxGeometry width="160" relative="1" as="geometry">
            <mxPoint x="600" y="131" as="sourcePoint" />
            <mxPoint x="520.7199999999998" y="141.29399999999998" as="targetPoint" />
          </mxGeometry>
        </mxCell>
        <mxCell id="5JU13Hx9IpRc4YvFb3v6-22" value="&lt;font face=&quot;Helvetica&quot; style=&quot;font-size: 15px;&quot;&gt;GUI&lt;/font&gt;" style="swimlane;fontStyle=1;align=center;verticalAlign=top;childLayout=stackLayout;horizontal=1;startSize=30;horizontalStack=0;resizeParent=1;resizeParentMax=0;resizeLast=0;collapsible=1;marginBottom=0;whiteSpace=wrap;html=1;strokeWidth=2;" vertex="1" parent="1">
          <mxGeometry x="600" y="31" width="200" height="230" as="geometry" />
        </mxCell>
        <mxCell id="5JU13Hx9IpRc4YvFb3v6-23" value="&lt;p style=&quot;margin: 0px; line-height: 100%; font-size: 12px;&quot;&gt;&lt;span style=&quot;font-family: &amp;quot;Microsoft YaHei&amp;quot;; font-size: 12px;&quot;&gt;+ linkage: FourBarLinkage&lt;/span&gt;&lt;/p&gt;&lt;p style=&quot;margin: 0px; line-height: 100%; font-size: 12px;&quot;&gt;&lt;span style=&quot;font-family: &amp;quot;Microsoft YaHei&amp;quot;; background-color: initial; font-size: 12px;&quot;&gt;&lt;br style=&quot;font-size: 12px;&quot;&gt;&lt;/span&gt;&lt;/p&gt;&lt;p style=&quot;margin: 0px; line-height: 100%; font-size: 12px;&quot;&gt;&lt;span style=&quot;font-family: &amp;quot;Microsoft YaHei&amp;quot;; background-color: initial; font-size: 12px;&quot;&gt;+ tk: tkinter.Tk&lt;/span&gt;&lt;/p&gt;&lt;p style=&quot;margin: 0px; line-height: 100%; font-size: 12px;&quot;&gt;&lt;span style=&quot;font-family: &amp;quot;Microsoft YaHei&amp;quot;; background-color: initial; font-size: 12px;&quot;&gt;&lt;br&gt;&lt;/span&gt;&lt;/p&gt;&lt;p style=&quot;text-align: center; margin: 0px; line-height: 100%;&quot;&gt;&lt;font style=&quot;font-size: 21px;&quot; face=&quot;Microsoft YaHei&quot;&gt;&amp;nbsp; &amp;nbsp; &amp;nbsp; ...&lt;/font&gt;&lt;/p&gt;" style="text;strokeColor=none;fillColor=none;align=left;verticalAlign=top;spacingLeft=4;spacingRight=4;overflow=hidden;rotatable=0;points=[[0,0.5],[1,0.5]];portConstraint=eastwest;whiteSpace=wrap;html=1;fontSize=12;fontColor=#000000;" vertex="1" parent="5JU13Hx9IpRc4YvFb3v6-22">
          <mxGeometry y="30" width="200" height="80" as="geometry" />
        </mxCell>
        <mxCell id="5JU13Hx9IpRc4YvFb3v6-24" value="" style="line;strokeWidth=1;fillColor=none;align=left;verticalAlign=middle;spacingTop=-1;spacingLeft=3;spacingRight=3;rotatable=0;labelPosition=right;points=[];portConstraint=eastwest;strokeColor=inherit;" vertex="1" parent="5JU13Hx9IpRc4YvFb3v6-22">
          <mxGeometry y="110" width="200" height="8" as="geometry" />
        </mxCell>
        <mxCell id="5JU13Hx9IpRc4YvFb3v6-25" value="&lt;p style=&quot;margin: 0px; line-height: 100%; font-size: 12px;&quot;&gt;&lt;span style=&quot;font-family: &amp;quot;Microsoft YaHei&amp;quot;; font-size: 12px;&quot;&gt;+ __init__(): void&lt;/span&gt;&lt;/p&gt;&lt;p style=&quot;margin: 0px; line-height: 100%; font-size: 12px;&quot;&gt;&lt;span style=&quot;font-family: &amp;quot;Microsoft YaHei&amp;quot;; background-color: initial;&quot;&gt;&lt;br&gt;&lt;/span&gt;&lt;/p&gt;&lt;p style=&quot;margin: 0px; line-height: 100%; font-size: 12px;&quot;&gt;&lt;span style=&quot;font-family: &amp;quot;Microsoft YaHei&amp;quot;; background-color: initial;&quot;&gt;+ display_toolbar(): void&lt;/span&gt;&lt;/p&gt;&lt;p style=&quot;margin: 0px; line-height: 100%; font-size: 12px;&quot;&gt;&lt;span style=&quot;font-family: &amp;quot;Microsoft YaHei&amp;quot;; background-color: initial;&quot;&gt;&lt;br&gt;&lt;/span&gt;&lt;/p&gt;&lt;p style=&quot;margin: 0px; line-height: 100%; font-size: 12px;&quot;&gt;&lt;span style=&quot;font-family: &amp;quot;Microsoft YaHei&amp;quot;; background-color: initial;&quot;&gt;+ initiate_linkage_display(): void&lt;/span&gt;&lt;/p&gt;&lt;p style=&quot;margin: 0px; line-height: 100%; font-size: 12px;&quot;&gt;&lt;span style=&quot;font-family: &amp;quot;Microsoft YaHei&amp;quot;; background-color: initial;&quot;&gt;&lt;br&gt;&lt;/span&gt;&lt;/p&gt;&lt;p style=&quot;margin: 0px; line-height: 100%; font-size: 12px;&quot;&gt;&lt;span style=&quot;font-family: &amp;quot;Microsoft YaHei&amp;quot;; font-size: 21px; text-align: center;&quot;&gt;&amp;nbsp; &amp;nbsp; &amp;nbsp; &amp;nbsp; &amp;nbsp; &amp;nbsp; &amp;nbsp; ...&lt;/span&gt;&lt;span style=&quot;font-family: &amp;quot;Microsoft YaHei&amp;quot;; background-color: initial;&quot;&gt;&lt;/span&gt;&lt;/p&gt;" style="text;strokeColor=none;fillColor=none;align=left;verticalAlign=top;spacingLeft=4;spacingRight=4;overflow=hidden;rotatable=0;points=[[0,0.5],[1,0.5]];portConstraint=eastwest;whiteSpace=wrap;html=1;fontColor=#000000;fontSize=12;" vertex="1" parent="5JU13Hx9IpRc4YvFb3v6-22">
          <mxGeometry y="118" width="200" height="112" as="geometry" />
        </mxCell>
        <mxCell id="5JU13Hx9IpRc4YvFb3v6-31" value="&lt;p style=&quot;margin: 0px; line-height: 100%; font-size: 15px;&quot; align=&quot;center&quot;&gt;&lt;font style=&quot;font-size: 15px;&quot; face=&quot;Helvetica&quot;&gt;TestFourBarLinkage27Cases&lt;/font&gt;&lt;/p&gt;&lt;font style=&quot;font-size: 15px;&quot; face=&quot;Helvetica&quot;&gt;&lt;br&gt;&lt;/font&gt;&lt;p style=&quot;margin: 0px; line-height: 100%; font-family: SimSun; font-size: 15px; color: rgb(255, 255, 255);&quot; align=&quot;center&quot;&gt;&lt;br&gt;&lt;/p&gt;" style="swimlane;fontStyle=1;align=center;verticalAlign=top;childLayout=stackLayout;horizontal=1;startSize=30;horizontalStack=0;resizeParent=1;resizeParentMax=0;resizeLast=0;collapsible=1;marginBottom=0;whiteSpace=wrap;html=1;strokeWidth=2;" vertex="1" parent="1">
          <mxGeometry x="599.82" y="380" width="260" height="150" as="geometry" />
        </mxCell>
        <mxCell id="5JU13Hx9IpRc4YvFb3v6-33" value="" style="line;strokeWidth=1;fillColor=none;align=left;verticalAlign=middle;spacingTop=-1;spacingLeft=3;spacingRight=3;rotatable=0;labelPosition=right;points=[];portConstraint=eastwest;strokeColor=inherit;" vertex="1" parent="5JU13Hx9IpRc4YvFb3v6-31">
          <mxGeometry y="30" width="260" height="8" as="geometry" />
        </mxCell>
        <mxCell id="5JU13Hx9IpRc4YvFb3v6-34" value="&lt;p style=&quot;margin: 0px; line-height: 100%; font-size: 13px;&quot;&gt;&lt;span style=&quot;background-color: initial;&quot;&gt;+ check_motion_case(float, float, ...): void&lt;/span&gt;&lt;/p&gt;&lt;p style=&quot;margin: 0px; line-height: 100%; font-size: 13px;&quot;&gt;&lt;span style=&quot;background-color: initial;&quot;&gt;&lt;br&gt;&lt;/span&gt;&lt;/p&gt;&lt;p style=&quot;margin: 0px; line-height: 100%; font-size: 13px;&quot;&gt;&lt;span style=&quot;background-color: initial;&quot;&gt;+ test_case_1(): void&lt;/span&gt;&lt;/p&gt;&lt;p style=&quot;margin: 0px; line-height: 100%; font-size: 13px;&quot;&gt;&lt;span style=&quot;background-color: initial;&quot;&gt;&lt;br&gt;&lt;/span&gt;&lt;/p&gt;&lt;p style=&quot;margin: 0px; line-height: 100%; font-size: 12px;&quot;&gt;&lt;span style=&quot;font-family: &amp;quot;Microsoft YaHei&amp;quot;; font-size: 21px;&quot;&gt;&amp;nbsp; &amp;nbsp; &amp;nbsp; &amp;nbsp; &amp;nbsp; &amp;nbsp; &amp;nbsp; &amp;nbsp; &amp;nbsp; &amp;nbsp;...&lt;/span&gt;&lt;span style=&quot;font-family: &amp;quot;Microsoft YaHei&amp;quot;; background-color: initial;&quot;&gt;&lt;/span&gt;&lt;/p&gt;&lt;p style=&quot;margin: 0px; line-height: 100%; font-size: 12px;&quot;&gt;&lt;span style=&quot;font-family: &amp;quot;Microsoft YaHei&amp;quot;; font-size: 21px;&quot;&gt;&lt;br&gt;&lt;/span&gt;&lt;/p&gt;&lt;p style=&quot;margin: 0px; line-height: 100%; font-size: 12px;&quot;&gt;&lt;span style=&quot;font-size: 13px;&quot;&gt;+ test_case_27(): void&lt;/span&gt;&lt;/p&gt;" style="text;strokeColor=none;fillColor=none;align=left;verticalAlign=top;spacingLeft=4;spacingRight=4;overflow=hidden;rotatable=0;points=[[0,0.5],[1,0.5]];portConstraint=eastwest;whiteSpace=wrap;html=1;fontColor=#000000;fontSize=12;" vertex="1" parent="5JU13Hx9IpRc4YvFb3v6-31">
          <mxGeometry y="38" width="260" height="112" as="geometry" />
        </mxCell>
        <mxCell id="5JU13Hx9IpRc4YvFb3v6-35" value="" style="endArrow=diamondThin;endFill=1;endSize=24;html=1;rounded=0;entryX=1.001;entryY=0.242;entryDx=0;entryDy=0;entryPerimeter=0;strokeWidth=2;exitX=0.004;exitY=0.375;exitDx=0;exitDy=0;exitPerimeter=0;" edge="1" parent="1" source="5JU13Hx9IpRc4YvFb3v6-34">
          <mxGeometry width="160" relative="1" as="geometry">
            <mxPoint x="649.82" y="570" as="sourcePoint" />
            <mxPoint x="520.0000000000001" y="459.94399999999996" as="targetPoint" />
          </mxGeometry>
        </mxCell>
        <mxCell id="5JU13Hx9IpRc4YvFb3v6-36" value="unittest.TestCase" style="swimlane;fontStyle=1;align=center;verticalAlign=top;childLayout=stackLayout;horizontal=1;startSize=26;horizontalStack=0;resizeParent=1;resizeParentMax=0;resizeLast=0;collapsible=1;marginBottom=0;whiteSpace=wrap;html=1;strokeWidth=2;" vertex="1" parent="1">
          <mxGeometry x="640" y="300" width="160" height="34" as="geometry" />
        </mxCell>
        <mxCell id="5JU13Hx9IpRc4YvFb3v6-38" value="" style="line;strokeWidth=1;fillColor=none;align=left;verticalAlign=middle;spacingTop=-1;spacingLeft=3;spacingRight=3;rotatable=0;labelPosition=right;points=[];portConstraint=eastwest;strokeColor=inherit;" vertex="1" parent="5JU13Hx9IpRc4YvFb3v6-36">
          <mxGeometry y="26" width="160" height="8" as="geometry" />
        </mxCell>
        <mxCell id="5JU13Hx9IpRc4YvFb3v6-40" value="" style="endArrow=block;endSize=16;endFill=0;html=1;rounded=0;entryX=0.5;entryY=1;entryDx=0;entryDy=0;strokeWidth=2;" edge="1" parent="1" target="5JU13Hx9IpRc4YvFb3v6-36">
          <mxGeometry width="160" relative="1" as="geometry">
            <mxPoint x="720" y="380" as="sourcePoint" />
            <mxPoint x="470" y="210" as="targetPoint" />
          </mxGeometry>
        </mxCell>
      </root>
    </mxGraphModel>
  </diagram>
</mxfile>
